<mxfile host="app.diagrams.net" modified="2024-01-31T22:09:39.814Z" agent="Mozilla/5.0 (Windows NT 10.0; Win64; x64) AppleWebKit/537.36 (KHTML, like Gecko) Chrome/120.0.0.0 Safari/537.36 OPR/106.0.0.0 (Edition Yx GX)" version="23.1.0" etag="UNYC-2ptbg0noL8hBS7l" type="github">
  <diagram name="Страница — 1" id="3-0SpdIPgQ5IgKa5CA1v">
    <mxGraphModel>
      <root>
        <mxCell id="0" />
        <mxCell id="1" parent="0" />
      </root>
    </mxGraphModel>
  </diagram>
</mxfile>
